<?xml version="1.0" encoding="UTF-8"?>
<svg id="a" data-name="图层 1" xmlns="http://www.w3.org/2000/svg" viewBox="0 0 22.15 22.15">
  <defs>
    <style>
      .b {
        fill: #fefffe;
      }

      .c {
        fill: #52d593;
      }

      .d {
        fill: #fff;
      }

      .e {
        fill: #1c8862;
      }

      .f {
        fill: #bad0d1;
      }

      .g {
        fill: rgba(255, 255, 255, 0);
      }

      .h {
        fill: #174542;
      }
    </style>
  </defs>
  <g>
    <path class="f" d="M19.7,2.4h0c-2.4-2.4-6.3-2.4-8.7,0l-4.4,4.4,8.7,8.7,4.4-4.4c2.4-2.4,2.4-6.3,0-8.7Z"/>
    <path class="c" d="M2.3,19.8h0c2.4,2.4,6.3,2.4,8.7,0l4.4-4.4L6.6,6.8l-4.4,4.4c-2.3,2.3-2.3,6.2.1,8.6Z"/>
    <path class="d" d="M19.7,2.4h0c-2.4-2.4-6.3-2.4-8.7,0l-4.4,4.4,8.7,8.7,4.4-4.4c2.4-2.4,2.4-6.3,0-8.7Z"/>
    <path class="f" d="M18.8,1.8h0c-.3-.3-.6-.5-.9-.8,2.1,2.8,2.2,6.4,0,8.6l-4.3,4.3,1.7,1.7,4.3-4.3c2.4-2.4,2-6.6-.9-9.4l.1-.1Z"/>
    <path class="e" d="M13.6,14l-4.4,4.4c-1.8,1.8-4.5,2.1-7,1,2.8,2.4,6.8,2.5,9.1.2l4-4-1.7-1.7v.1Z"/>
    <rect class="h" x="10.46" y="4.96" width="1" height="12.3" transform="translate(-4.64 11.01) rotate(-45)"/>
    <path class="h" d="M6.7,22.1c-1.7,0-3.4-.6-4.7-1.9h0c-2.6-2.6-2.6-6.8,0-9.4L10.8,1.9c1.3-1.3,2.9-1.9,4.7-1.9s3.4.7,4.7,1.9c1.3,1.2,1.9,2.9,1.9,4.7s-.7,3.4-1.9,4.7l-8.8,8.8c-1.24,1.24-2.82,1.95-4.44,2-.08,0-.26,0-.26,0ZM2.6,19.5c2.2,2.2,5.8,2.2,8,0l8.8-8.8c2.2-2.2,2.2-5.8,0-8-1.1-1.1-2.5-1.7-4-1.7s-2.9.6-4,1.7L2.6,11.5c-2.2,2.2-2.2,5.8,0,8h0Z"/>
    <path class="d" d="M2.9,15.1h0v.7c0,.2.1.5.2.7,0,.1,0,.3-.2.3s-.2,0-.3-.2c-.1-.4-.2-.7-.2-1.1v-.8s.1-.1.3-.1c.1,0,.2,0,.2.2v.3Z"/>
    <path class="b" d="M3.6,13.4v.2c-.1.1-.2.3-.4.4s-.2,0-.3,0-.1-.2,0-.2c.1-.2.3-.3.4-.4h.2s.2.1.2.2l-.1-.2Z"/>
    <path class="b" d="M3.9,18.2s0,.2-.2.2h-.2c-.1-.1-.3-.2-.4-.4v-.3s.2-.1.3,0,.3.3.4.4v.2l.1-.1Z"/>
  </g>
  <rect class="g" width="22.15" height="22.15"/>
</svg>